PathFileType	4	(X/Y/Z)	C:\Users\86182\Documents\cortex\Trimmed_M1_H9.trc
DataRate	CameraRate	NumFrames	NumMarkers	Units	OrigDataRate	OrigDataStartFrame	OrigNumFrames
100.00	100.00	       56	2	mm	100.00	361	       901
Frame#	Time	gripper			box			
		X1	Y1	Z1	X2	Y2	Z2	

361	3.600	223.32712	204.72879	286.58420	228.17906	204.28122	137.22169	
362	3.610	223.32181	204.72626	286.58511	228.22609	204.27806	137.20035	
363	3.620	223.29465	204.71265	286.55429	228.27881	204.27309	137.17709	
364	3.630	223.31531	204.72302	286.57916	228.33040	204.26692	137.15497	
365	3.640	223.35373	204.74150	286.57977	228.37357	204.25977	137.13678	
366	3.650	223.30370	204.71635	286.51733	228.40321	204.25084	137.12341	
367	3.660	223.34079	204.73508	286.56781	228.41772	204.23796	137.11327	
368	3.670	223.38193	204.75452	286.54901	228.41727	204.21793	137.10266	
369	3.680	223.35341	204.74026	286.51834	228.40218	204.18732	137.08705	
370	3.690	223.33746	204.73289	286.53531	228.37364	204.14384	137.06140	
371	3.700	223.29446	204.71130	286.48196	228.33475	204.08762	137.02101	
372	3.710	223.05956	204.64403	286.54251	228.28888	204.02155	136.96327	
373	3.720	222.90250	204.60274	286.50137	228.23598	203.95062	136.89017	
374	3.730	222.84265	204.57378	286.49060	228.17320	203.88091	136.80901	
375	3.740	222.82001	204.56297	286.49554	228.10109	203.81841	136.72949	
376	3.750	222.62350	204.48491	286.50803	228.02655	203.76743	136.65977	
377	3.760	222.08557	204.49294	286.51956	227.95889	203.72948	136.60504	
378	3.770	222.23686	204.56151	286.40744	227.90564	203.70401	136.56773	
379	3.780	222.26096	204.55447	286.38260	227.87154	203.68971	136.54813	
380	3.790	222.22169	204.54977	286.41202	227.85814	203.68498	136.54440	
381	3.800	222.06474	204.48306	286.52802	227.86305	203.68729	136.55283	
382	3.810	222.17723	204.46817	286.52399	227.88019	203.69339	136.56834	
383	3.820	222.51526	204.54250	286.51773	227.90192	203.70050	136.58560	
384	3.830	222.79637	204.55910	286.50003	227.92105	203.70717	136.59975	
385	3.840	222.80856	204.55753	286.49869	227.93256	203.71294	136.60750	
386	3.850	222.70563	204.50842	286.52261	227.93484	203.71779	136.60782	
387	3.860	222.55412	204.45164	286.51309	227.92990	203.72174	136.60204	
388	3.870	222.37828	204.43120	286.50943	227.92140	203.72475	136.59296	
389	3.880	222.17986	204.45549	286.52341	227.91286	203.72690	136.58359	
390	3.890	222.10013	204.46584	286.53232	227.90663	203.72845	136.57608	
391	3.900	222.14372	204.49312	286.49750	227.90366	203.72955	136.57167	
392	3.910	222.13855	204.51793	286.49069	227.90355	203.73010	136.57088	
393	3.920	222.24179	204.48500	286.50662	227.90538	203.72997	136.57358	
394	3.930	222.40880	204.44582	286.50644	227.90808	203.72919	136.57886	
395	3.940	222.48717	204.44621	286.50519	227.91061	203.72801	136.58490	
396	3.950	222.66185	204.48729	286.51691	227.91180	203.72682	136.58951	
397	3.960	222.64970	204.48682	286.51227	227.91074	203.72592	136.59085	
398	3.970	222.67386	204.49287	286.50616	227.90736	203.72545	136.58830	
399	3.980	222.49052	204.50687	286.49799	227.90257	203.72523	136.58298	
400	3.990	222.20651	204.46130	286.52063	227.89774	203.72508	136.57690	
401	4.000	222.13420	204.46141	286.52850	227.89436	203.72499	136.57190	
402	4.010	222.04376	204.47314	286.53864	227.89378	203.72517	136.56909	
403	4.020	222.10013	204.46584	286.53232	227.89661	203.72569	136.56902	
404	4.030	222.11143	204.46437	286.53107	227.90231	203.72623	136.57188	
405	4.040	222.20058	204.50894	286.52344	227.90971	203.72643	136.57742	
406	4.050	222.50438	204.48103	286.49796	227.91748	203.72615	136.58466	
407	4.060	222.60640	204.46036	286.50095	227.92413	203.72560	136.59189	
408	4.070	222.57558	204.44559	286.50397	227.92821	203.72517	136.59708	
409	4.080	222.62349	204.46893	286.52219	227.92880	203.72523	136.59842	
410	4.090	222.54497	204.43092	286.50693	227.92596	203.72595	136.59518	
411	4.100	222.54405	204.45209	286.50333	227.92070	203.72710	136.58844	
412	4.110	222.44476	204.55376	286.45642	227.91443	203.72821	136.58040	
413	4.120	222.38641	204.63548	286.39087	227.90829	203.72891	136.57318	
414	4.130	222.30315	204.56868	286.43127	227.90303	203.72906	136.56805	
415	4.140	222.19492	204.51062	286.48438	227.89925	203.72879	136.56529	
416	4.150	222.18657	204.46541	286.50717	227.89748	203.72844	136.56461	
